#N canvas 0 0 1695 877 10;
#X obj 1020 180 bng 19 250 50 0 empty empty empty 17 7 0 10 #fcfcfc
#000000 #000000;
#X obj 1020 50 tgl 33 0 empty empty empty 17 7 0 10 #00ff40 #ff0080
#000000 0 1;
#X floatatom 1080 110 10 0 0 0 - - -, f 10;
#X obj 1020 150 metro;
#X obj 1080 50 loadbang;
#X msg 1080 80 1000;
#X floatatom 1020 270 11 0 0 0 - - -, f 11;
#X obj 1150 60 hsl 132 38 0 10000 0 0 empty empty empty -2 -8 0 10
#ff80ff #250dff #000000 0 1;
#X text 1170 30 change metro inteval;
#X text 1020 30 start metro;
#X obj 1020 240 random_range, f 19;
#X floatatom 1080 200 5 0 0 0 - - -, f 5;
#X floatatom 1130 200 5 0 0 0 - - -, f 5;
#X text 1080 180 min;
#X text 1130 180 max;
#X obj 1030 340 ctlin;
#X floatatom 1030 368 5 0 0 0 - - -, f 5;
#X floatatom 1070 368 5 0 0 0 - - -, f 5;
#X floatatom 1110 368 5 0 0 0 - - -, f 5;
#X obj 1073 339 pddp/pddplink ctlin-help.pd;
#X floatatom 1310 50 5 0 0 0 - - -, f 5;
#X obj 1310 30 ctlin 19;
#X floatatom 1160 360 5 0 0 0 - - -, f 5;
#X obj 1160 340 ctlin 23;
#X obj 1310 80 / 127;
#X obj 1310 105 * 10000;
#X obj 20 60 osc~ 440;
#X obj 100 440 dac~;
#X obj 100 400 *~ 0.5;
#X floatatom 140 380 4 0 1 0 - - -, f 4;
#X floatatom 20 30 5 0 0 0 - - -, f 5;
#X obj 230 430 tabwrite~ display;
#X obj 230 350 tgl 33 0 empty empty empty 17 7 0 10 #00ff40 #ff0080
#000000 0 1;
#N canvas 0 0 450 300 (subpatch) 0;
#X array display 500 float 1 black black;
#A 0 0 0 0 0 0 0 0 0 0 0 0 0 0 0 0 0 0 0 0 0 0 0 0 0 0 0 0 0 0 0 0
0 0 0 0 0 0 0 0 0 0 0 0 0 0 0 0 0 0 0 0 0 0 0 0 0 0 0 0 0 0 0 0 0 0
0 0 0 0 0 0 0 0 0 0 0 0 0 0 0 0 0 0 0 0 0 0 0 0 0 0 0 0 0 0 0 0 0 0
0 0 0 0 0 0 0 0 0 0 0 0 0 0 0 0 0 0 0 0 0 0 0 0 0 0 0 0 0 0 0 0 0 0
0 0 0 0 0 0 0 0 0 0 0 0 0 0 0 0 0 0 0 0 0 0 0 0 0 0 0 0 0 0 0 0 0 0
0 0 0 0 0 0 0 0 0 0 0 0 0 0 0 0 0 0 0 0 0 0 0 0 0 0 0 0 0 0 0 0 0 0
0 0 0 0 0 0 0 0 0 0 0 0 0 0 0 0 0 0 0 0 0 0 0 0 0 0 0 0 0 0 0 0 0 0
0 0 0 0 0 0 0 0 0 0 0 0 0 0 0 0 0 0 0 0 0 0 0 0 0 0 0 0 0 0 0 0 0 0
0 0 0 0 0 0 0 0 0 0 0 0 0 0 0 0 0 0 0 0 0 0 0 0 0 0 0 0 0 0 0 0 0 0
0 0 0 0 0 0 0 0 0 0 0 0 0 0 0 0 0 0 0 0 0 0 0 0 0 0 0 0 0 0 0 0 0 0
0 0 0 0 0 0 0 0 0 0 0 0 0 0 0 0 0 0 0 0 0 0 0 0 0 0 0 0 0 0 0 0 0 0
0 0 0 0 0 0 0 0 0 0 0 0 0 0 0 0 0 0 0 0 0 0 0 0 0 0 0 0 0 0 0 0 0 0
0 0 0 0 0 0 0 0 0 0 0 0 0 0 0 0 0 0 0 0 0 0 0 0 0 0 0 0 0 0 0 0 0 0
0 0 0 0 0 0 0 0 0 0 0 0 0 0 0 0 0 0 0 0 0 0 0 0 0 0 0 0 0 0 0 0 0 0
0 0 0 0 0 0 0 0 0 0 0 0 0 0 0 0 0 0 0 0 0 0 0 0 0 0 0;
#X coords 0 1 499 -1 610 170 1;
#X restore 100 470 graph;
#X obj 100 340 +~, f 17;
#X floatatom 140 30 5 0 0 0 - - -, f 5;
#X obj 210 20 noise~;
#X floatatom 80 30 5 0 0 0 - - -, f 5;
#X obj 80 60 * -1;
#X obj 360 270 click~;
#X obj 360 240 bng 15 250 50 0 empty empty empty 17 7 0 10 #fcfcfc
#000000 #000000;
#X obj 360 330 lop~ 100;
#X obj 1080 460 line;
#X floatatom 1080 490 5 0 0 0 - - -, f 5;
#X obj 1080 430 pack i i;
#X obj 230 390 metro 100;
#X obj 200 110 *~ 0.2;
#X floatatom 230 60 5 0 0 0 - - -, f 5;
#X obj 200 140 bp~ 100 0.5;
#X floatatom 260 80 5 0 0 0 - - -, f 5;
#X obj 360 300 *~ 50;
#X obj 20 120 *~, f 13;
#X obj 140 60 phasor~ 100;
#X obj 140 90 *~ 0.8, f 5;
#X obj 20 90 *~ 0.1;
#X obj 520 310 osc~ 440;
#X floatatom 520 260 5 0 0 0 - - -, f 5;
#X obj 540 150 bng 15 250 50 0 empty empty empty 17 7 0 10 #fcfcfc
#000000 #000000;
#X obj 590 280 pack i i;
#X obj 520 360 *~;
#X obj 590 310 line~;
#X msg 640 240 0 20;
#X msg 590 240 0.8 1;
#X obj 640 210 delay 20;
#X obj 360 40 metro 200;
#X obj 360 10 tgl 15 0 empty empty empty 17 7 0 10 #fcfcfc #000000
#000000 0 1;
#X obj 360 70 counter 8;
#X obj 530 200 * 100;
#X obj 530 225 + 200;
#X obj 360 100 route 0 1 2 3 4 5 6 7, f 75;
#X obj 360 140 bng 15 250 50 0 empty empty empty 17 7 0 10 #fcfcfc
#000000 #000000;
#X obj 410 140 bng 15 250 50 0 empty empty empty 17 7 0 10 #fcfcfc
#000000 #000000;
#X obj 440 150 bng 15 250 50 0 empty empty empty 17 7 0 10 #fcfcfc
#000000 #000000;
#X obj 450 260 click~;
#X obj 450 320 lop~ 1000;
#X obj 450 290 *~ 200;
#X connect 0 0 10 0;
#X connect 1 0 3 0;
#X connect 2 0 3 1;
#X connect 2 0 44 1;
#X connect 3 0 0 0;
#X connect 4 0 5 0;
#X connect 5 0 2 0;
#X connect 6 0 44 0;
#X connect 7 0 2 0;
#X connect 10 0 6 0;
#X connect 11 0 10 1;
#X connect 12 0 10 2;
#X connect 15 0 16 0;
#X connect 15 1 17 0;
#X connect 15 2 18 0;
#X connect 20 0 24 0;
#X connect 21 0 20 0;
#X connect 23 0 22 0;
#X connect 24 0 25 0;
#X connect 25 0 7 0;
#X connect 26 0 54 0;
#X connect 28 0 27 0;
#X connect 28 0 27 1;
#X connect 29 0 28 1;
#X connect 30 0 26 0;
#X connect 32 0 45 0;
#X connect 34 0 28 0;
#X connect 34 0 31 0;
#X connect 35 0 52 0;
#X connect 37 0 38 0;
#X connect 39 0 50 0;
#X connect 40 0 39 0;
#X connect 41 0 34 1;
#X connect 42 0 43 0;
#X connect 44 0 42 0;
#X connect 45 0 31 0;
#X connect 46 0 48 0;
#X connect 47 0 48 1;
#X connect 49 0 48 2;
#X connect 50 0 41 0;
#X connect 51 0 46 0;
#X connect 52 0 53 0;
#X connect 53 0 51 1;
#X connect 54 0 51 0;
#X connect 55 0 59 0;
#X connect 56 0 55 0;
#X connect 57 0 62 0;
#X connect 57 0 63 0;
#X connect 58 0 60 0;
#X connect 59 0 34 0;
#X connect 60 0 59 1;
#X connect 61 0 58 0;
#X connect 62 0 58 0;
#X connect 63 0 61 0;
#X connect 64 0 66 0;
#X connect 65 0 64 0;
#X connect 66 0 69 0;
#X connect 67 0 68 0;
#X connect 68 0 56 0;
#X connect 69 0 70 0;
#X connect 69 1 71 0;
#X connect 69 2 72 0;
#X connect 69 3 57 0;
#X connect 70 0 40 0;
#X connect 72 0 73 0;
#X connect 73 0 75 0;
#X connect 74 0 34 1;
#X connect 75 0 74 0;
