#N canvas -7 -7 2195 1139 10;
#X obj 100 270 scope;
#X obj 340 270 scope;
#X obj 570 270 scope;
#X obj 810 270 scope;
#X obj 480 190 *~;
#X obj 340 100 phasor~ 100;
#X obj 100 100 osc~ 3000;
#X obj 550 620 dac~;
#X obj 100 50 nbx 5 14 -1e+37 1e+37 0 0 empty empty empty 0 -8 0 10
#fcfcfc #000000 #000000 1 256 0;
#X obj 340 50 nbx 5 14 -1e+37 1e+37 0 0 empty empty empty 0 -8 0 10
#fcfcfc #000000 #000000 51 256 0;
#X obj 700 100 click~;
#X obj 630 50 bng 15 250 50 0 empty empty empty 17 7 0 10 #fcfcfc #000000
#000000;
#X connect 4 0 2 0;
#X connect 5 0 4 0;
#X connect 5 0 1 0;
#X connect 6 0 4 1;
#X connect 6 0 0 0;
#X connect 8 0 6 0;
#X connect 9 0 5 0;
#X connect 10 0 3 0;
#X connect 11 0 10 0;
