#N canvas 862 279 931 600 10;
#X obj 160 160 - 0, f 6;
#X obj 120 190 random;
#X obj 120 230 +, f 15;
#X obj 160 90 t b a, f 13;
#X obj 150 20 inlet;
#X obj 240 20 inlet;
#X obj 120 270 outlet;
#X obj 30 20 inlet;
#X obj 370 20 loadbang;
#X msg 370 60 0;
#X msg 430 60 1000;
#X text 350 0 initialize withe default values;
#X text 30 0 bang;
#X text 150 0 min value;
#X text 240 0 max value;
#X connect 0 0 1 1;
#X connect 1 0 2 0;
#X connect 2 0 6 0;
#X connect 3 0 0 0;
#X connect 3 1 0 1;
#X connect 3 1 2 1;
#X connect 4 0 3 0;
#X connect 5 0 0 0;
#X connect 7 0 1 0;
#X connect 8 0 9 0;
#X connect 8 0 10 0;
#X connect 9 0 3 0;
#X connect 10 0 0 0;
